<?xml version="1.0" standalone="no"?>
<!DOCTYPE svg PUBLIC "-//W3C//DTD SVG 20010904//EN"
 "http://www.w3.org/TR/2001/REC-SVG-20010904/DTD/svg10.dtd">
<svg version="1.0" xmlns="http://www.w3.org/2000/svg"
 width="1023.000000pt" height="1023.000000pt" viewBox="0 0 1023.000000 1023.000000"
 preserveAspectRatio="xMidYMid meet">
<metadata>
Created by potrace 1.14, written by Peter Selinger 2001-2017
</metadata>
<g transform="translate(0.000000,1023.000000) scale(0.100000,-0.100000)"
fill="#000000" stroke="none">
<path d="M2860 8171 c-40 -21 -105 -89 -105 -109 0 -4 -4 -13 -9 -20 -8 -13
-10 -104 -3 -132 29 -109 122 -179 237 -177 l56 1 262 -262 262 -262 0 -448 0
-447 -72 -1 c-107 -1 -223 -12 -298 -30 -47 -11 -65 -15 -75 -17 -5 -2 -15 -6
-21 -9 -6 -4 -22 -9 -35 -11 -14 -3 -70 -27 -125 -54 l-99 -49 -248 248 c-136
136 -260 254 -275 261 -22 11 -126 13 -522 12 l-495 -1 -40 41 c-71 72 -150
93 -245 66 -72 -20 -142 -93 -156 -162 -23 -116 20 -212 123 -270 57 -33 156
-31 216 4 25 15 56 40 70 57 l26 30 463 0 463 0 214 -214 214 -214 -41 -44
c-51 -53 -73 -79 -98 -113 -10 -15 -25 -33 -31 -40 -7 -8 -13 -18 -13 -24 0
-6 -4 -11 -9 -11 -5 0 -14 -12 -20 -27 -6 -16 -19 -41 -29 -58 -20 -33 -68
-144 -77 -177 -2 -5 -3 -9 -5 -10 -1 -2 -3 -10 -5 -18 -1 -8 -7 -33 -13 -55
-27 -98 -35 -169 -35 -295 -1 -116 6 -177 37 -307 12 -51 63 -183 87 -227 6
-10 20 -35 31 -55 48 -85 95 -147 182 -238 l39 -41 -216 -216 -216 -216 -465
0 c-264 0 -466 4 -466 9 0 20 -78 82 -122 97 -45 15 -130 15 -144 1 -4 -4 -16
-7 -25 -7 -24 0 -104 -77 -120 -115 -50 -122 -13 -239 96 -304 30 -19 57 -25
110 -27 38 -2 75 2 82 8 7 6 13 7 13 3 0 -11 71 44 96 74 l22 26 511 0 511 0
264 264 c204 204 268 262 278 254 20 -17 128 -73 128 -68 0 3 10 0 23 -7 12
-7 24 -13 27 -13 3 -1 32 -10 65 -20 65 -20 68 -21 105 -29 74 -17 146 -23
273 -25 l87 -1 0 -450 0 -450 -265 -265 c-147 -146 -271 -263 -276 -259 -11 6
-70 7 -99 1 -20 -4 -81 -34 -100 -50 -19 -14 -68 -79 -69 -89 -1 -5 -1 -9 -2
-10 -28 -93 -3 -194 63 -254 51 -46 86 -58 169 -58 84 0 157 42 194 114 25 46
27 55 28 125 l1 60 296 295 295 295 3 497 3 498 92 1 c158 2 210 9 377 54 8 2
16 4 18 5 1 2 7 4 12 5 6 1 12 4 15 5 3 1 8 3 13 4 4 2 21 8 37 16 129 58 203
101 280 163 72 59 225 217 225 233 0 3 6 11 13 19 11 10 22 5 63 -31 70 -63
72 -64 82 -64 4 0 17 -8 28 -18 38 -35 200 -107 289 -128 83 -19 148 -27 253
-28 l92 -1 0 -601 c0 -330 2 -609 6 -620 4 -10 84 -97 178 -192 l171 -172 1
-64 c2 -157 136 -265 289 -232 11 3 21 5 23 6 1 2 5 3 10 4 24 6 81 50 92 71
7 14 17 25 21 25 4 0 10 12 14 27 5 16 10 35 13 43 19 63 -12 173 -63 220 -44
41 -114 68 -174 66 l-56 -1 -145 144 -145 145 0 566 0 566 80 0 c105 0 231 15
278 33 15 6 27 8 27 5 0 -2 13 2 30 11 16 8 32 16 35 16 9 0 80 30 110 46 57
31 150 97 190 135 l40 38 17 -22 c66 -86 170 -195 227 -238 18 -14 39 -31 46
-37 8 -7 18 -13 24 -13 6 0 11 -4 11 -10 0 -5 7 -10 15 -10 8 0 15 -4 15 -9 0
-5 8 -11 18 -14 9 -3 41 -20 70 -36 28 -17 52 -28 52 -26 0 3 17 -3 38 -13 39
-20 156 -57 207 -66 128 -22 139 -23 270 -25 l90 -1 -1 -487 c0 -476 0 -489
20 -518 12 -16 145 -154 297 -306 l276 -275 0 -65 c2 -140 107 -241 246 -235
57 2 143 39 158 67 5 10 15 23 22 31 45 45 54 169 18 239 -22 41 -64 89 -79
89 -4 0 -13 5 -20 12 -6 6 -17 13 -24 15 -7 1 -29 6 -48 11 -19 4 -48 5 -65 2
-28 -6 -43 7 -297 259 l-268 266 0 447 0 448 98 1 c53 0 111 2 127 4 49 6 98
13 125 19 14 3 36 8 50 12 14 3 30 6 35 7 6 2 16 6 23 10 6 5 12 6 12 2 0 -3
14 1 30 10 17 9 30 13 30 10 0 -3 11 2 25 11 14 9 25 14 25 10 0 -8 174 85
178 96 2 4 8 8 14 8 5 0 15 6 22 12 8 7 24 20 37 28 29 19 187 175 220 217 25
32 31 41 73 104 32 48 94 182 93 199 0 3 5 15 12 28 7 13 14 31 16 40 2 9 11
42 19 72 25 93 30 140 30 275 0 141 -5 189 -29 285 -3 11 -7 29 -10 41 -12 58
-106 273 -126 289 -3 3 -12 16 -19 30 -19 36 -108 148 -160 200 -38 39 -65 61
-135 112 -5 4 -24 19 -41 33 -18 14 -34 25 -38 25 -3 0 -27 13 -53 28 -26 16
-70 37 -98 47 -27 10 -56 23 -62 28 -7 5 -13 6 -13 2 0 -4 -7 -2 -15 5 -8 7
-15 9 -15 5 0 -4 -7 -2 -15 5 -8 7 -15 10 -15 6 0 -3 -11 -1 -26 4 -14 6 -37
12 -52 15 -15 3 -38 7 -52 10 -37 8 -176 19 -252 19 l-68 0 0 449 0 448 263
262 262 262 61 -1 c83 -2 143 28 201 99 31 38 45 133 30 197 -11 47 -73 130
-98 130 -5 0 -9 4 -9 8 0 14 -53 28 -113 31 -47 2 -68 -3 -109 -24 -62 -32
-67 -37 -102 -97 -22 -39 -28 -61 -29 -115 l-1 -67 -293 -293 c-161 -161 -294
-301 -294 -310 -1 -10 -2 -234 -3 -498 l-1 -480 -75 -1 c-105 -2 -230 -13
-268 -24 -18 -5 -36 -9 -40 -10 -4 0 -25 -5 -47 -11 -22 -6 -44 -12 -50 -14
-5 -1 -23 -7 -38 -13 -16 -7 -31 -12 -33 -12 -5 0 -140 -66 -195 -95 -11 -5
-19 -13 -19 -17 0 -5 -7 -8 -15 -8 -8 0 -15 -3 -15 -7 0 -5 -17 -19 -38 -33
-63 -42 -251 -239 -252 -262 0 -15 -21 -8 -44 15 -113 109 -281 195 -456 233
-48 11 -126 18 -207 18 -55 1 -94 5 -94 11 -1 5 -2 260 -3 565 l-2 555 144
147 145 147 46 -3 c68 -5 137 21 183 68 54 53 68 89 69 166 0 55 -2 66 -24
107 -52 98 -157 145 -268 120 -39 -8 -106 -53 -126 -84 -10 -16 -22 -31 -28
-35 -5 -4 -6 -8 -1 -8 5 0 3 -7 -4 -15 -6 -8 -13 -45 -14 -83 l-2 -70 -167
-166 c-91 -91 -171 -175 -177 -186 -7 -13 -10 -218 -10 -628 l0 -608 -97 0
c-91 0 -166 -7 -220 -19 -13 -3 -33 -7 -45 -10 -13 -3 -34 -9 -48 -14 -30 -11
-64 -22 -67 -22 -1 0 -31 -16 -65 -35 -35 -19 -71 -37 -80 -41 -10 -3 -18 -9
-18 -14 0 -5 -5 -9 -10 -9 -6 0 -16 -5 -23 -10 -7 -6 -23 -20 -37 -31 -14 -11
-37 -31 -52 -45 -35 -30 -40 -30 -60 4 -31 50 -124 151 -187 202 -24 19 -49
40 -55 45 -34 29 -111 76 -186 112 -108 53 -194 83 -280 99 -14 2 -35 6 -47 9
-35 8 -141 17 -228 19 l-80 2 -5 495 c-3 272 -6 496 -8 499 -1 2 -134 136
-294 297 l-293 293 -2 58 c-1 67 -3 76 -28 122 -57 110 -203 152 -315 91z
m159 -126 c57 -29 60 -107 8 -151 -89 -75 -200 55 -118 137 33 32 67 37 110
14z m5664 4 c90 -41 45 -191 -52 -175 -80 12 -110 109 -50 160 33 28 64 32
102 15z m-2338 -255 c55 -59 17 -154 -60 -154 -48 0 -74 15 -90 52 -27 65 16
128 87 128 29 0 45 -6 63 -26z m-5208 -1169 c28 -20 46 -75 34 -106 -17 -46
-52 -64 -114 -60 -10 1 -29 12 -42 26 -38 37 -31 108 14 142 22 17 82 16 108
-2z m5 -2843 c23 -21 31 -38 31 -60 0 -91 -92 -134 -154 -73 -86 87 31 214
123 133z m5206 -1188 c34 -39 30 -95 -9 -128 -40 -34 -87 -34 -123 -1 -26 24
-30 37 -26 85 6 74 106 102 158 44z m-3323 -220 c29 -19 48 -76 36 -107 -25
-66 -114 -84 -157 -34 -71 82 31 200 121 141z m5665 1 c81 -42 43 -170 -51
-170 -84 0 -123 105 -58 159 35 29 67 33 109 11z"/>
</g>
</svg>
